<svg width="32" height="32" viewBox="0 0 32 32" fill="none" xmlns="http://www.w3.org/2000/svg">
<path d="M26.667 5.33325H5.33366C3.86699 5.33325 2.66699 6.53325 2.66699 7.99992V23.9999C2.66699 25.4666 3.86699 26.6666 5.33366 26.6666H26.667C28.1337 26.6666 29.3337 25.4666 29.3337 23.9999V7.99992C29.3337 6.53325 28.1337 5.33325 26.667 5.33325ZM10.667 14.6666H5.33366V7.99992H10.667V14.6666ZM18.667 14.6666H13.3337V7.99992H18.667V14.6666ZM26.667 14.6666H21.3337V7.99992H26.667V14.6666ZM10.667 23.9999H5.33366V17.3333H10.667V23.9999ZM18.667 23.9999H13.3337V17.3333H18.667V23.9999ZM26.667 23.9999H21.3337V17.3333H26.667V23.9999Z" fill="#212B36"/>
</svg>
