<svg width="32" height="32" viewBox="0 0 32 32" fill="none" xmlns="http://www.w3.org/2000/svg">
<path d="M5.33333 18.6667H8C8.73333 18.6667 9.33333 18.0667 9.33333 17.3334V14.6667C9.33333 13.9334 8.73333 13.3334 8 13.3334H5.33333C4.6 13.3334 4 13.9334 4 14.6667V17.3334C4 18.0667 4.6 18.6667 5.33333 18.6667ZM5.33333 25.3334H8C8.73333 25.3334 9.33333 24.7334 9.33333 24.0001V21.3334C9.33333 20.6001 8.73333 20.0001 8 20.0001H5.33333C4.6 20.0001 4 20.6001 4 21.3334V24.0001C4 24.7334 4.6 25.3334 5.33333 25.3334ZM5.33333 12.0001H8C8.73333 12.0001 9.33333 11.4001 9.33333 10.6667V8.00008C9.33333 7.26675 8.73333 6.66675 8 6.66675H5.33333C4.6 6.66675 4 7.26675 4 8.00008V10.6667C4 11.4001 4.6 12.0001 5.33333 12.0001ZM12 18.6667H26.6667C27.4 18.6667 28 18.0667 28 17.3334V14.6667C28 13.9334 27.4 13.3334 26.6667 13.3334H12C11.2667 13.3334 10.6667 13.9334 10.6667 14.6667V17.3334C10.6667 18.0667 11.2667 18.6667 12 18.6667ZM12 25.3334H26.6667C27.4 25.3334 28 24.7334 28 24.0001V21.3334C28 20.6001 27.4 20.0001 26.6667 20.0001H12C11.2667 20.0001 10.6667 20.6001 10.6667 21.3334V24.0001C10.6667 24.7334 11.2667 25.3334 12 25.3334ZM10.6667 8.00008V10.6667C10.6667 11.4001 11.2667 12.0001 12 12.0001H26.6667C27.4 12.0001 28 11.4001 28 10.6667V8.00008C28 7.26675 27.4 6.66675 26.6667 6.66675H12C11.2667 6.66675 10.6667 7.26675 10.6667 8.00008Z" fill="#212B36"/>
</svg>
